<mxfile host="Electron" agent="Mozilla/5.0 (Windows NT 10.0; Win64; x64) AppleWebKit/537.36 (KHTML, like Gecko) draw.io/26.0.4 Chrome/128.0.6613.186 Electron/32.2.5 Safari/537.36" version="26.0.4">
  <diagram id="C5RBs43oDa-KdzZeNtuy" name="Page-1">
    <mxGraphModel dx="880" dy="532" grid="1" gridSize="10" guides="1" tooltips="1" connect="1" arrows="1" fold="1" page="1" pageScale="1" pageWidth="1169" pageHeight="827" math="0" shadow="0">
      <root>
        <mxCell id="WIyWlLk6GJQsqaUBKTNV-0" />
        <mxCell id="WIyWlLk6GJQsqaUBKTNV-1" parent="WIyWlLk6GJQsqaUBKTNV-0" />
        <mxCell id="PtgBGD1UI-ZKKbDJZ96Q-0" value="Start" style="ellipse;whiteSpace=wrap;html=1;fillColor=#f5f5f5;fontColor=#333333;strokeColor=#666666;" parent="WIyWlLk6GJQsqaUBKTNV-1" vertex="1">
          <mxGeometry x="423" y="92" width="90" height="40" as="geometry" />
        </mxCell>
        <mxCell id="PtgBGD1UI-ZKKbDJZ96Q-1" value="User Clicks SignUp" style="rounded=1;whiteSpace=wrap;html=1;fillColor=#d5e8d4;strokeColor=#82b366;" parent="WIyWlLk6GJQsqaUBKTNV-1" vertex="1">
          <mxGeometry x="408" y="172" width="120" height="40" as="geometry" />
        </mxCell>
        <mxCell id="PtgBGD1UI-ZKKbDJZ96Q-2" value="" style="endArrow=classic;html=1;rounded=0;exitX=0.5;exitY=1;exitDx=0;exitDy=0;entryX=0.5;entryY=0;entryDx=0;entryDy=0;" parent="WIyWlLk6GJQsqaUBKTNV-1" source="PtgBGD1UI-ZKKbDJZ96Q-0" target="PtgBGD1UI-ZKKbDJZ96Q-1" edge="1">
          <mxGeometry width="50" height="50" relative="1" as="geometry">
            <mxPoint x="308" y="182" as="sourcePoint" />
            <mxPoint x="358" y="132" as="targetPoint" />
          </mxGeometry>
        </mxCell>
        <mxCell id="PtgBGD1UI-ZKKbDJZ96Q-3" value="SignUp with 3rd party auth e.g. google" style="rounded=1;whiteSpace=wrap;html=1;fillColor=#d5e8d4;strokeColor=#82b366;" parent="WIyWlLk6GJQsqaUBKTNV-1" vertex="1">
          <mxGeometry x="408" y="252" width="120" height="40" as="geometry" />
        </mxCell>
        <mxCell id="PtgBGD1UI-ZKKbDJZ96Q-18" value="Google Authentification" style="rounded=1;whiteSpace=wrap;html=1;fillColor=#d5e8d4;strokeColor=#82b366;" parent="WIyWlLk6GJQsqaUBKTNV-1" vertex="1">
          <mxGeometry x="408" y="350" width="120" height="40" as="geometry" />
        </mxCell>
        <mxCell id="PtgBGD1UI-ZKKbDJZ96Q-30" value="" style="endArrow=classic;html=1;rounded=0;exitX=0.5;exitY=1;exitDx=0;exitDy=0;entryX=0.5;entryY=0;entryDx=0;entryDy=0;" parent="WIyWlLk6GJQsqaUBKTNV-1" source="PtgBGD1UI-ZKKbDJZ96Q-3" target="PtgBGD1UI-ZKKbDJZ96Q-18" edge="1">
          <mxGeometry width="50" height="50" relative="1" as="geometry">
            <mxPoint x="328" y="322" as="sourcePoint" />
            <mxPoint x="328" y="362" as="targetPoint" />
          </mxGeometry>
        </mxCell>
        <mxCell id="PtgBGD1UI-ZKKbDJZ96Q-35" value="Successful?" style="rhombus;whiteSpace=wrap;html=1;fillColor=#f8cecc;strokeColor=#b85450;" parent="WIyWlLk6GJQsqaUBKTNV-1" vertex="1">
          <mxGeometry x="428" y="460" width="80" height="80" as="geometry" />
        </mxCell>
        <mxCell id="PtgBGD1UI-ZKKbDJZ96Q-36" value="" style="endArrow=classic;html=1;rounded=0;exitX=0.5;exitY=1;exitDx=0;exitDy=0;entryX=0.5;entryY=0;entryDx=0;entryDy=0;" parent="WIyWlLk6GJQsqaUBKTNV-1" source="PtgBGD1UI-ZKKbDJZ96Q-18" target="PtgBGD1UI-ZKKbDJZ96Q-35" edge="1">
          <mxGeometry width="50" height="50" relative="1" as="geometry">
            <mxPoint x="347.5" y="422" as="sourcePoint" />
            <mxPoint x="347.5" y="472" as="targetPoint" />
          </mxGeometry>
        </mxCell>
        <mxCell id="PtgBGD1UI-ZKKbDJZ96Q-37" value="Create Basic Account" style="shape=tapeData;whiteSpace=wrap;html=1;perimeter=ellipsePerimeter;fillColor=#fff2cc;strokeColor=#d6b656;" parent="WIyWlLk6GJQsqaUBKTNV-1" vertex="1">
          <mxGeometry x="428" y="592" width="80" height="80" as="geometry" />
        </mxCell>
        <mxCell id="PtgBGD1UI-ZKKbDJZ96Q-44" value="" style="endArrow=classic;html=1;rounded=0;exitX=0.5;exitY=1;exitDx=0;exitDy=0;entryX=0.5;entryY=0;entryDx=0;entryDy=0;" parent="WIyWlLk6GJQsqaUBKTNV-1" source="PtgBGD1UI-ZKKbDJZ96Q-35" target="PtgBGD1UI-ZKKbDJZ96Q-37" edge="1">
          <mxGeometry relative="1" as="geometry">
            <mxPoint x="288" y="612" as="sourcePoint" />
            <mxPoint x="388" y="612" as="targetPoint" />
            <Array as="points" />
          </mxGeometry>
        </mxCell>
        <mxCell id="PtgBGD1UI-ZKKbDJZ96Q-45" value="Yes" style="edgeLabel;resizable=0;;align=center;verticalAlign=middle;html=1;" parent="PtgBGD1UI-ZKKbDJZ96Q-44" connectable="0" vertex="1">
          <mxGeometry relative="1" as="geometry" />
        </mxCell>
        <mxCell id="PtgBGD1UI-ZKKbDJZ96Q-46" value="Connect wallet" style="rounded=1;whiteSpace=wrap;html=1;fillColor=#d5e8d4;strokeColor=#82b366;" parent="WIyWlLk6GJQsqaUBKTNV-1" vertex="1">
          <mxGeometry x="408" y="730" width="120" height="40" as="geometry" />
        </mxCell>
        <mxCell id="PtgBGD1UI-ZKKbDJZ96Q-48" value="" style="endArrow=classic;html=1;rounded=0;exitX=0.5;exitY=1;exitDx=0;exitDy=0;entryX=0.5;entryY=0;entryDx=0;entryDy=0;" parent="WIyWlLk6GJQsqaUBKTNV-1" source="PtgBGD1UI-ZKKbDJZ96Q-37" target="PtgBGD1UI-ZKKbDJZ96Q-46" edge="1">
          <mxGeometry width="50" height="50" relative="1" as="geometry">
            <mxPoint x="488" y="672" as="sourcePoint" />
            <mxPoint x="488" y="732" as="targetPoint" />
          </mxGeometry>
        </mxCell>
        <mxCell id="PtgBGD1UI-ZKKbDJZ96Q-49" value="&lt;b&gt;&lt;font style=&quot;font-size: 18px;&quot; face=&quot;Verdana&quot;&gt;FVKRY PRVNTA: REGISTER USER&lt;/font&gt;&lt;/b&gt;" style="text;html=1;align=center;verticalAlign=middle;resizable=0;points=[];autosize=1;strokeColor=none;fillColor=none;" parent="WIyWlLk6GJQsqaUBKTNV-1" vertex="1">
          <mxGeometry x="330" y="23" width="350" height="40" as="geometry" />
        </mxCell>
        <mxCell id="63aAPQXoBXONIk-ZK1JP-0" value="" style="endArrow=classic;html=1;rounded=0;exitX=0.5;exitY=1;exitDx=0;exitDy=0;entryX=0.5;entryY=0;entryDx=0;entryDy=0;" edge="1" parent="WIyWlLk6GJQsqaUBKTNV-1" source="PtgBGD1UI-ZKKbDJZ96Q-1" target="PtgBGD1UI-ZKKbDJZ96Q-3">
          <mxGeometry width="50" height="50" relative="1" as="geometry">
            <mxPoint x="550" y="230" as="sourcePoint" />
            <mxPoint x="550" y="270" as="targetPoint" />
          </mxGeometry>
        </mxCell>
        <mxCell id="63aAPQXoBXONIk-ZK1JP-1" value="" style="endArrow=classic;html=1;rounded=0;exitX=1;exitY=0.5;exitDx=0;exitDy=0;entryX=1;entryY=0.5;entryDx=0;entryDy=0;" edge="1" parent="WIyWlLk6GJQsqaUBKTNV-1" source="PtgBGD1UI-ZKKbDJZ96Q-35" target="PtgBGD1UI-ZKKbDJZ96Q-1">
          <mxGeometry relative="1" as="geometry">
            <mxPoint x="525" y="499.5" as="sourcePoint" />
            <mxPoint x="620" y="250" as="targetPoint" />
            <Array as="points">
              <mxPoint x="600" y="500" />
              <mxPoint x="600" y="192" />
            </Array>
          </mxGeometry>
        </mxCell>
        <mxCell id="63aAPQXoBXONIk-ZK1JP-2" value="No" style="edgeLabel;resizable=0;html=1;;align=center;verticalAlign=middle;" connectable="0" vertex="1" parent="63aAPQXoBXONIk-ZK1JP-1">
          <mxGeometry relative="1" as="geometry">
            <mxPoint y="-6" as="offset" />
          </mxGeometry>
        </mxCell>
      </root>
    </mxGraphModel>
  </diagram>
</mxfile>
